<?xml version="1.0" standalone="no"?>
<!DOCTYPE svg PUBLIC "-//W3C//DTD SVG 20010904//EN"
 "http://www.w3.org/TR/2001/REC-SVG-20010904/DTD/svg10.dtd">
<svg version="1.0" xmlns="http://www.w3.org/2000/svg"
 width="150.000000pt" height="150.000000pt" viewBox="0 0 150.000000 150.000000"
 preserveAspectRatio="xMidYMid meet">
<metadata>
Created by potrace 1.11, written by Peter Selinger 2001-2013
</metadata>
<g transform="translate(0.000000,150.000000) scale(0.100000,-0.100000)"
fill="#000000" stroke="none">
<path d="M97 1397 c-15 -15 -25 -32 -22 -37 3 -6 2 -10 -4 -10 -7 0 -7 -8 -1
-26 9 -23 8 -25 -6 -20 -14 6 -15 4 -4 -9 8 -9 14 -29 15 -43 1 -15 5 -34 10
-41 5 -9 4 -12 -3 -7 -7 4 -6 -4 2 -20 8 -14 13 -37 11 -50 -1 -13 2 -24 7
-24 5 0 6 -4 3 -10 -3 -5 -2 -10 3 -10 6 0 8 -8 5 -19 -3 -10 0 -22 6 -25 6
-4 11 -18 11 -31 0 -13 5 -27 11 -30 6 -4 8 -13 5 -21 -3 -8 -1 -14 5 -14 6 0
8 -4 5 -9 -4 -5 -2 -11 4 -13 5 -1 11 -15 12 -30 1 -16 5 -28 8 -28 3 0 11 -9
18 -21 10 -16 11 -24 1 -35 -10 -12 -9 -13 4 -9 15 7 47 -43 47 -73 0 -9 3
-12 7 -9 9 10 56 -71 48 -83 -4 -6 -2 -9 3 -8 15 4 53 -43 45 -56 -3 -6 -3 -8
1 -4 10 9 57 -42 50 -53 -3 -5 2 -6 10 -3 15 6 21 -6 17 -29 -1 -5 2 -6 6 -4
11 6 53 -39 45 -48 -3 -3 2 -3 13 1 14 6 17 4 12 -9 -3 -9 -3 -16 1 -16 25 4
33 -3 27 -24 -4 -15 -3 -18 3 -9 8 12 13 12 31 1 11 -8 21 -20 21 -27 0 -7 5
-10 11 -7 6 4 19 -1 29 -11 32 -32 49 -44 60 -44 5 0 10 -4 10 -10 0 -5 3 -9
8 -8 13 3 81 -35 76 -43 -2 -4 1 -11 7 -15 8 -4 9 -3 5 4 -12 19 9 14 28 -7
10 -11 24 -17 31 -15 7 3 19 -1 26 -8 8 -7 23 -15 34 -16 11 -2 21 -8 23 -12
2 -5 10 -6 18 -3 8 3 14 0 14 -7 0 -6 4 -9 8 -6 10 6 84 -18 77 -25 -2 -3 9
-4 25 -3 17 1 32 -2 35 -7 3 -4 13 -5 22 -2 12 5 14 3 8 -8 -6 -11 -5 -12 5
-2 9 8 19 9 32 2 10 -5 18 -6 18 -2 0 4 5 1 10 -7 7 -11 10 -11 10 -2 0 9 6
10 18 4 9 -4 28 -7 42 -6 14 1 28 -3 32 -10 5 -7 8 -6 8 4 0 13 1 13 10 0 6
-9 13 -11 18 -5 4 6 14 11 22 13 32 6 58 25 53 38 -3 8 -1 20 4 27 5 6 8 22 7
34 0 13 2 23 6 23 4 0 7 7 7 15 0 8 -3 15 -7 15 -8 0 -6 32 3 46 3 6 3 14 0
18 -11 10 -11 46 0 46 6 0 6 5 0 13 -11 14 -11 27 0 44 4 6 2 15 -4 19 -8 4
-7 9 2 15 10 6 11 9 2 9 -7 0 -13 8 -13 18 0 27 -32 58 -58 56 -12 -1 -25 2
-27 6 -2 4 -17 5 -31 2 -21 -4 -25 -2 -19 9 7 11 6 12 -7 2 -8 -7 -18 -10 -22
-6 -7 8 -40 15 -73 16 -13 1 -23 5 -23 9 0 4 -9 8 -21 8 -11 0 -18 3 -16 8 3
4 -15 8 -38 10 -24 1 -47 -2 -50 -8 -4 -6 -11 -8 -16 -5 -5 4 -9 1 -9 -6 0
-17 -139 -149 -145 -139 -3 5 -21 17 -39 25 -18 9 -43 25 -54 35 -12 11 -24
20 -27 20 -6 0 -23 13 -56 42 -10 10 -21 18 -23 18 -9 0 -66 59 -66 69 0 6 -6
11 -12 11 -7 0 -26 19 -42 43 -17 23 -36 46 -43 50 -7 5 -11 12 -8 18 4 5 1 9
-6 9 -7 0 -10 2 -7 5 3 3 -7 19 -22 35 -35 37 -33 59 5 88 17 13 29 25 27 28
-5 9 32 33 42 27 5 -4 6 -1 2 6 -5 7 3 23 18 38 14 14 27 30 27 34 1 5 2 17 3
27 1 9 5 23 10 31 6 9 5 12 -2 7 -11 -7 -30 38 -34 82 -1 6 -4 12 -8 12 -4 0
-7 6 -7 13 -2 34 -10 74 -17 85 -4 7 -2 12 6 12 8 0 9 3 3 8 -6 4 -12 23 -14
42 -1 19 -11 44 -22 56 -17 18 -30 20 -98 19 -43 -1 -83 -5 -90 -9 -6 -4 -11
-3 -11 2 0 9 -103 8 -119 -3 -6 -3 -11 -3 -11 2 0 19 -56 6 -83 -20z"/>
</g>
</svg>
